<svg xmlns="http://www.w3.org/2000/svg" xmlns:xlink="http://www.w3.org/1999/xlink" width="500" zoomAndPan="magnify" viewBox="0 0 375 374.999991" height="500" preserveAspectRatio="xMidYMid meet" version="1.0"><defs><g/></defs><g fill="#ca5940" fill-opacity="1"><g transform="translate(34.666308, 229.743343)"><g><path d="M 21.050781 3.894531 C 34.683594 3.894531 44.417969 -6.027344 44.417969 -19.84375 C 44.417969 -31.527344 32.640625 -39.6875 32.917969 -47.941406 C 32.917969 -52.578125 35.609375 -54.433594 38.667969 -54.433594 C 43.953125 -54.433594 43.398438 -47.847656 41.636719 -45.625 C 40.339844 -43.953125 44.417969 -40.894531 45.53125 -42.472656 C 50.539062 -45.066406 53.785156 -50.261719 53.785156 -55.824219 C 53.785156 -62.5 49.613281 -68.992188 38.761719 -68.992188 C 26.429688 -68.992188 20.863281 -60.832031 20.863281 -52.300781 C 20.863281 -41.082031 30.230469 -34.21875 30.230469 -27.078125 C 30.230469 -22.535156 27.078125 -19.382812 22.625 -19.382812 C 17.804688 -19.382812 14.929688 -22.535156 14.929688 -27.542969 C 14.929688 -32.640625 18.175781 -32.828125 18.175781 -34.960938 C 18.175781 -36.351562 16.691406 -37.277344 14.375 -37.277344 C 8.902344 -37.277344 -0.371094 -32.457031 -0.371094 -17.898438 C -0.371094 -3.617188 8.902344 3.894531 21.050781 3.894531 Z M 21.050781 3.894531 "/></g></g></g><g fill="#ca5940" fill-opacity="1"><g transform="translate(82.69928, 229.743343)"><g><path d="M 48.5 -25.410156 C 46.644531 -22.625 44.882812 -20.679688 42.101562 -20.679688 C 39.597656 -20.679688 37.371094 -22.253906 37.371094 -25.78125 C 37.371094 -30.414062 41.542969 -37.464844 41.542969 -42.65625 C 41.542969 -45.347656 40.523438 -46.367188 38.667969 -46.367188 C 33.941406 -46.367188 30.136719 -39.78125 26.335938 -27.632812 L 26.242188 -27.261719 C 24.667969 -22.625 21.792969 -20.773438 18.453125 -20.773438 C 15.394531 -20.773438 14.558594 -22.347656 14.558594 -24.945312 C 14.558594 -30.414062 18.730469 -36.628906 18.730469 -42.65625 C 18.730469 -45.066406 17.898438 -46.367188 15.855469 -46.367188 C 10.664062 -46.367188 6.398438 -38.949219 2.132812 -25.410156 C 0.277344 -19.382812 0.09375 -13.910156 0.09375 -11.128906 C 0.09375 -3.523438 3.246094 -0.09375 8.253906 -0.09375 C 15.484375 -0.09375 20.121094 -7.324219 23.183594 -13.910156 C 22.996094 -12.519531 22.90625 -11.3125 22.90625 -10.109375 C 22.90625 -3.523438 25.410156 0 30.878906 0 C 43.398438 0 49.703125 -17.988281 52.671875 -23.089844 C 53.691406 -24.851562 49.980469 -27.632812 48.5 -25.410156 Z M 48.5 -25.410156 "/></g></g></g><g fill="#ca5940" fill-opacity="1"><g transform="translate(129.063154, 229.743343)"><g><path d="M 5.84375 0 C 12.425781 0 13.632812 -5.101562 13.632812 -9.828125 L 13.632812 -14.003906 C 13.632812 -22.253906 18.269531 -29.953125 23.648438 -29.953125 C 25.78125 -29.953125 27.171875 -28.839844 27.171875 -26.335938 C 27.171875 -21.605469 22.535156 -15.300781 22.535156 -8.253906 C 22.535156 -2.132812 25.6875 -0.183594 29.953125 -0.183594 C 36.90625 -0.183594 38.207031 -5.285156 38.207031 -9.179688 C 38.207031 -11.871094 37.554688 -12.796875 37.554688 -15.484375 C 37.554688 -22.441406 42.191406 -30.136719 47.570312 -30.136719 C 49.703125 -30.136719 51.09375 -29.023438 51.09375 -26.890625 C 51.09375 -23.089844 47.199219 -16.878906 47.199219 -9.828125 C 47.199219 -4.542969 49.242188 0 55.175781 0 C 67.695312 0 74 -17.988281 76.96875 -23.089844 C 77.988281 -24.851562 74.277344 -27.632812 72.792969 -25.410156 C 70.941406 -22.625 69.179688 -20.679688 66.394531 -20.679688 C 63.242188 -20.679688 61.851562 -22.253906 61.851562 -25.5 C 61.851562 -30.136719 64.820312 -33.105469 64.820312 -38.019531 C 64.820312 -42.65625 62.128906 -46.550781 54.898438 -46.550781 C 50.445312 -46.550781 46.457031 -44.417969 42.933594 -40.523438 C 41.542969 -38.949219 40.894531 -39.316406 40.617188 -40.523438 C 39.6875 -43.863281 37.09375 -46.367188 32.546875 -46.367188 C 28.46875 -46.367188 24.757812 -44.417969 21.328125 -41.082031 C 18.359375 -38.113281 16.320312 -39.6875 16.320312 -42.84375 C 16.320312 -44.695312 15.578125 -46.367188 13.445312 -46.367188 C 9.738281 -46.367188 5.933594 -36.816406 2.132812 -25.410156 C -0.464844 -17.804688 -0.925781 -11.128906 -0.925781 -6.769531 C -0.925781 -2.875 1.484375 0 5.84375 0 Z M 5.84375 0 "/></g></g></g><g fill="#ca5940" fill-opacity="1"><g transform="translate(199.721683, 229.743343)"><g><path d="M 5.84375 0 C 12.425781 0 13.632812 -5.101562 13.632812 -9.828125 L 13.632812 -14.003906 C 13.632812 -22.253906 18.269531 -29.953125 23.648438 -29.953125 C 25.78125 -29.953125 27.171875 -28.839844 27.171875 -26.335938 C 27.171875 -21.605469 22.535156 -15.300781 22.535156 -8.253906 C 22.535156 -2.132812 25.6875 -0.183594 29.953125 -0.183594 C 36.90625 -0.183594 38.207031 -5.285156 38.207031 -9.179688 C 38.207031 -11.871094 37.554688 -12.796875 37.554688 -15.484375 C 37.554688 -22.441406 42.191406 -30.136719 47.570312 -30.136719 C 49.703125 -30.136719 51.09375 -29.023438 51.09375 -26.890625 C 51.09375 -23.089844 47.199219 -16.878906 47.199219 -9.828125 C 47.199219 -4.542969 49.242188 0 55.175781 0 C 67.695312 0 74 -17.988281 76.96875 -23.089844 C 77.988281 -24.851562 74.277344 -27.632812 72.792969 -25.410156 C 70.941406 -22.625 69.179688 -20.679688 66.394531 -20.679688 C 63.242188 -20.679688 61.851562 -22.253906 61.851562 -25.5 C 61.851562 -30.136719 64.820312 -33.105469 64.820312 -38.019531 C 64.820312 -42.65625 62.128906 -46.550781 54.898438 -46.550781 C 50.445312 -46.550781 46.457031 -44.417969 42.933594 -40.523438 C 41.542969 -38.949219 40.894531 -39.316406 40.617188 -40.523438 C 39.6875 -43.863281 37.09375 -46.367188 32.546875 -46.367188 C 28.46875 -46.367188 24.757812 -44.417969 21.328125 -41.082031 C 18.359375 -38.113281 16.320312 -39.6875 16.320312 -42.84375 C 16.320312 -44.695312 15.578125 -46.367188 13.445312 -46.367188 C 9.738281 -46.367188 5.933594 -36.816406 2.132812 -25.410156 C -0.464844 -17.804688 -0.925781 -11.128906 -0.925781 -6.769531 C -0.925781 -2.875 1.484375 0 5.84375 0 Z M 5.84375 0 "/></g></g></g><g fill="#ca5940" fill-opacity="1"><g transform="translate(270.380213, 229.743343)"><g><path d="M 17.433594 0 C 28.191406 0 38.019531 -7.976562 46.179688 -23.089844 C 47.199219 -24.851562 43.492188 -27.632812 42.007812 -25.410156 C 37.835938 -19.011719 30.324219 -15.765625 24.015625 -15.765625 C 18.730469 -15.765625 14.375 -17.433594 14.375 -20.679688 C 14.375 -21.882812 15.300781 -22.164062 15.949219 -21.792969 C 18.082031 -20.585938 20.585938 -20.308594 23.183594 -20.308594 C 32.269531 -20.308594 38.113281 -27.914062 38.113281 -34.683594 C 38.113281 -40.800781 34.3125 -46.367188 25.6875 -46.367188 C -0.925781 -46.367188 -8.625 0 17.433594 0 Z M 20.773438 -27.261719 C 17.804688 -27.261719 16.414062 -29.023438 16.414062 -31.066406 C 16.414062 -33.570312 18.640625 -36.257812 22.253906 -36.257812 C 25.128906 -36.257812 26.519531 -34.496094 26.519531 -32.457031 C 26.519531 -30.136719 24.386719 -27.261719 20.773438 -27.261719 Z M 20.773438 -27.261719 "/></g></g></g><g fill="#ca5940" fill-opacity="1"><g transform="translate(310.253123, 229.743343)"><g><path d="M 38.761719 -25.410156 C 36.90625 -22.625 35.144531 -20.679688 32.363281 -20.679688 C 28.191406 -20.679688 26.613281 -22.625 26.613281 -25.222656 C 26.613281 -30.972656 30.601562 -34.867188 30.601562 -40.152344 C 30.601562 -45.160156 21.699219 -51.09375 12.984375 -51.09375 C 7.976562 -51.09375 4.730469 -46.550781 4.730469 -42.75 C 4.730469 -39.410156 5.933594 -38.207031 7.789062 -37.554688 C 6.214844 -33.289062 3.894531 -27.914062 2.132812 -25.410156 C 0.925781 -23.648438 5.101562 -20.679688 6.304688 -23.089844 C 7.789062 -26.148438 10.847656 -32.457031 12.519531 -36.164062 C 16.226562 -34.773438 17.433594 -32.457031 17.433594 -31.527344 C 17.433594 -27.078125 10.941406 -18.359375 10.941406 -9.738281 C 10.941406 -5.007812 13.539062 0 21.144531 0 C 33.660156 0 39.96875 -17.988281 42.933594 -23.089844 C 43.953125 -24.851562 40.246094 -27.632812 38.761719 -25.410156 Z M 38.761719 -25.410156 "/></g></g></g><g fill="#faa433" fill-opacity="1"><g transform="translate(31.387501, 226.46454)"><g><path d="M 21.050781 3.894531 C 34.683594 3.894531 44.417969 -6.027344 44.417969 -19.84375 C 44.417969 -31.527344 32.640625 -39.6875 32.917969 -47.941406 C 32.917969 -52.578125 35.609375 -54.433594 38.667969 -54.433594 C 43.953125 -54.433594 43.398438 -47.847656 41.636719 -45.625 C 40.339844 -43.953125 44.417969 -40.894531 45.53125 -42.472656 C 50.539062 -45.066406 53.785156 -50.261719 53.785156 -55.824219 C 53.785156 -62.5 49.613281 -68.992188 38.761719 -68.992188 C 26.429688 -68.992188 20.863281 -60.832031 20.863281 -52.300781 C 20.863281 -41.082031 30.230469 -34.21875 30.230469 -27.078125 C 30.230469 -22.535156 27.078125 -19.382812 22.625 -19.382812 C 17.804688 -19.382812 14.929688 -22.535156 14.929688 -27.542969 C 14.929688 -32.640625 18.175781 -32.828125 18.175781 -34.960938 C 18.175781 -36.351562 16.691406 -37.277344 14.375 -37.277344 C 8.902344 -37.277344 -0.371094 -32.457031 -0.371094 -17.898438 C -0.371094 -3.617188 8.902344 3.894531 21.050781 3.894531 Z M 21.050781 3.894531 "/></g></g></g><g fill="#faa433" fill-opacity="1"><g transform="translate(79.420473, 226.46454)"><g><path d="M 48.5 -25.410156 C 46.644531 -22.625 44.882812 -20.679688 42.101562 -20.679688 C 39.597656 -20.679688 37.371094 -22.253906 37.371094 -25.78125 C 37.371094 -30.414062 41.542969 -37.464844 41.542969 -42.65625 C 41.542969 -45.347656 40.523438 -46.367188 38.667969 -46.367188 C 33.941406 -46.367188 30.136719 -39.78125 26.335938 -27.632812 L 26.242188 -27.261719 C 24.667969 -22.625 21.792969 -20.773438 18.453125 -20.773438 C 15.394531 -20.773438 14.558594 -22.347656 14.558594 -24.945312 C 14.558594 -30.414062 18.730469 -36.628906 18.730469 -42.65625 C 18.730469 -45.066406 17.898438 -46.367188 15.855469 -46.367188 C 10.664062 -46.367188 6.398438 -38.949219 2.132812 -25.410156 C 0.277344 -19.382812 0.09375 -13.910156 0.09375 -11.128906 C 0.09375 -3.523438 3.246094 -0.09375 8.253906 -0.09375 C 15.484375 -0.09375 20.121094 -7.324219 23.183594 -13.910156 C 22.996094 -12.519531 22.90625 -11.3125 22.90625 -10.109375 C 22.90625 -3.523438 25.410156 0 30.878906 0 C 43.398438 0 49.703125 -17.988281 52.671875 -23.089844 C 53.691406 -24.851562 49.980469 -27.632812 48.5 -25.410156 Z M 48.5 -25.410156 "/></g></g></g><g fill="#faa433" fill-opacity="1"><g transform="translate(125.784347, 226.46454)"><g><path d="M 5.84375 0 C 12.425781 0 13.632812 -5.101562 13.632812 -9.828125 L 13.632812 -14.003906 C 13.632812 -22.253906 18.269531 -29.953125 23.648438 -29.953125 C 25.78125 -29.953125 27.171875 -28.839844 27.171875 -26.335938 C 27.171875 -21.605469 22.535156 -15.300781 22.535156 -8.253906 C 22.535156 -2.132812 25.6875 -0.183594 29.953125 -0.183594 C 36.90625 -0.183594 38.207031 -5.285156 38.207031 -9.179688 C 38.207031 -11.871094 37.554688 -12.796875 37.554688 -15.484375 C 37.554688 -22.441406 42.191406 -30.136719 47.570312 -30.136719 C 49.703125 -30.136719 51.09375 -29.023438 51.09375 -26.890625 C 51.09375 -23.089844 47.199219 -16.878906 47.199219 -9.828125 C 47.199219 -4.542969 49.242188 0 55.175781 0 C 67.695312 0 74 -17.988281 76.96875 -23.089844 C 77.988281 -24.851562 74.277344 -27.632812 72.792969 -25.410156 C 70.941406 -22.625 69.179688 -20.679688 66.394531 -20.679688 C 63.242188 -20.679688 61.851562 -22.253906 61.851562 -25.5 C 61.851562 -30.136719 64.820312 -33.105469 64.820312 -38.019531 C 64.820312 -42.65625 62.128906 -46.550781 54.898438 -46.550781 C 50.445312 -46.550781 46.457031 -44.417969 42.933594 -40.523438 C 41.542969 -38.949219 40.894531 -39.316406 40.617188 -40.523438 C 39.6875 -43.863281 37.09375 -46.367188 32.546875 -46.367188 C 28.46875 -46.367188 24.757812 -44.417969 21.328125 -41.082031 C 18.359375 -38.113281 16.320312 -39.6875 16.320312 -42.84375 C 16.320312 -44.695312 15.578125 -46.367188 13.445312 -46.367188 C 9.738281 -46.367188 5.933594 -36.816406 2.132812 -25.410156 C -0.464844 -17.804688 -0.925781 -11.128906 -0.925781 -6.769531 C -0.925781 -2.875 1.484375 0 5.84375 0 Z M 5.84375 0 "/></g></g></g><g fill="#faa433" fill-opacity="1"><g transform="translate(196.442876, 226.46454)"><g><path d="M 5.84375 0 C 12.425781 0 13.632812 -5.101562 13.632812 -9.828125 L 13.632812 -14.003906 C 13.632812 -22.253906 18.269531 -29.953125 23.648438 -29.953125 C 25.78125 -29.953125 27.171875 -28.839844 27.171875 -26.335938 C 27.171875 -21.605469 22.535156 -15.300781 22.535156 -8.253906 C 22.535156 -2.132812 25.6875 -0.183594 29.953125 -0.183594 C 36.90625 -0.183594 38.207031 -5.285156 38.207031 -9.179688 C 38.207031 -11.871094 37.554688 -12.796875 37.554688 -15.484375 C 37.554688 -22.441406 42.191406 -30.136719 47.570312 -30.136719 C 49.703125 -30.136719 51.09375 -29.023438 51.09375 -26.890625 C 51.09375 -23.089844 47.199219 -16.878906 47.199219 -9.828125 C 47.199219 -4.542969 49.242188 0 55.175781 0 C 67.695312 0 74 -17.988281 76.96875 -23.089844 C 77.988281 -24.851562 74.277344 -27.632812 72.792969 -25.410156 C 70.941406 -22.625 69.179688 -20.679688 66.394531 -20.679688 C 63.242188 -20.679688 61.851562 -22.253906 61.851562 -25.5 C 61.851562 -30.136719 64.820312 -33.105469 64.820312 -38.019531 C 64.820312 -42.65625 62.128906 -46.550781 54.898438 -46.550781 C 50.445312 -46.550781 46.457031 -44.417969 42.933594 -40.523438 C 41.542969 -38.949219 40.894531 -39.316406 40.617188 -40.523438 C 39.6875 -43.863281 37.09375 -46.367188 32.546875 -46.367188 C 28.46875 -46.367188 24.757812 -44.417969 21.328125 -41.082031 C 18.359375 -38.113281 16.320312 -39.6875 16.320312 -42.84375 C 16.320312 -44.695312 15.578125 -46.367188 13.445312 -46.367188 C 9.738281 -46.367188 5.933594 -36.816406 2.132812 -25.410156 C -0.464844 -17.804688 -0.925781 -11.128906 -0.925781 -6.769531 C -0.925781 -2.875 1.484375 0 5.84375 0 Z M 5.84375 0 "/></g></g></g><g fill="#faa433" fill-opacity="1"><g transform="translate(267.101406, 226.46454)"><g><path d="M 17.433594 0 C 28.191406 0 38.019531 -7.976562 46.179688 -23.089844 C 47.199219 -24.851562 43.492188 -27.632812 42.007812 -25.410156 C 37.835938 -19.011719 30.324219 -15.765625 24.015625 -15.765625 C 18.730469 -15.765625 14.375 -17.433594 14.375 -20.679688 C 14.375 -21.882812 15.300781 -22.164062 15.949219 -21.792969 C 18.082031 -20.585938 20.585938 -20.308594 23.183594 -20.308594 C 32.269531 -20.308594 38.113281 -27.914062 38.113281 -34.683594 C 38.113281 -40.800781 34.3125 -46.367188 25.6875 -46.367188 C -0.925781 -46.367188 -8.625 0 17.433594 0 Z M 20.773438 -27.261719 C 17.804688 -27.261719 16.414062 -29.023438 16.414062 -31.066406 C 16.414062 -33.570312 18.640625 -36.257812 22.253906 -36.257812 C 25.128906 -36.257812 26.519531 -34.496094 26.519531 -32.457031 C 26.519531 -30.136719 24.386719 -27.261719 20.773438 -27.261719 Z M 20.773438 -27.261719 "/></g></g></g><g fill="#faa433" fill-opacity="1"><g transform="translate(306.974316, 226.46454)"><g><path d="M 38.761719 -25.410156 C 36.90625 -22.625 35.144531 -20.679688 32.363281 -20.679688 C 28.191406 -20.679688 26.613281 -22.625 26.613281 -25.222656 C 26.613281 -30.972656 30.601562 -34.867188 30.601562 -40.152344 C 30.601562 -45.160156 21.699219 -51.09375 12.984375 -51.09375 C 7.976562 -51.09375 4.730469 -46.550781 4.730469 -42.75 C 4.730469 -39.410156 5.933594 -38.207031 7.789062 -37.554688 C 6.214844 -33.289062 3.894531 -27.914062 2.132812 -25.410156 C 0.925781 -23.648438 5.101562 -20.679688 6.304688 -23.089844 C 7.789062 -26.148438 10.847656 -32.457031 12.519531 -36.164062 C 16.226562 -34.773438 17.433594 -32.457031 17.433594 -31.527344 C 17.433594 -27.078125 10.941406 -18.359375 10.941406 -9.738281 C 10.941406 -5.007812 13.539062 0 21.144531 0 C 33.660156 0 39.96875 -17.988281 42.933594 -23.089844 C 43.953125 -24.851562 40.246094 -27.632812 38.761719 -25.410156 Z M 38.761719 -25.410156 "/></g></g></g><g fill="#ce4847" fill-opacity="1"><g transform="translate(157.442661, 169.814486)"><g><path d="M 5.996094 -9.347656 L 9.328125 -9.347656 L 9.328125 -11.683594 L 0.0859375 -11.683594 L 0.0859375 -9.347656 L 3.417969 -9.347656 L 3.417969 0 L 5.996094 0 Z M 5.996094 -9.347656 "/></g></g></g><g fill="#ce4847" fill-opacity="1"><g transform="translate(169.090574, 169.814486)"><g><path d="M 4.929688 -1.785156 C 3.539062 -1.785156 3.160156 -2.800781 3.160156 -3.761719 C 3.160156 -4.707031 3.574219 -5.722656 4.929688 -5.722656 C 6.269531 -5.722656 6.683594 -4.707031 6.683594 -3.761719 C 6.683594 -2.800781 6.304688 -1.785156 4.929688 -1.785156 Z M 4.929688 -7.730469 C 2.558594 -7.730469 0.601562 -6.152344 0.601562 -3.78125 C 0.601562 -1.355469 2.507812 0.15625 4.929688 0.15625 C 7.335938 0.15625 9.242188 -1.355469 9.242188 -3.78125 C 9.242188 -6.152344 7.285156 -7.730469 4.929688 -7.730469 Z M 4.929688 -7.730469 "/></g></g></g><g fill="#ce4847" fill-opacity="1"><g transform="translate(181.167941, 169.814486)"><g/></g></g><g fill="#ce4847" fill-opacity="1"><g transform="translate(187.696761, 169.814486)"><g><path d="M 4.277344 -5.582031 L 5.652344 -5.582031 L 5.652344 -7.578125 L 4.277344 -7.578125 L 4.277344 -10.460938 L 1.71875 -10.460938 L 1.71875 -7.578125 L 0.34375 -7.578125 L 0.34375 -5.582031 L 1.71875 -5.582031 L 1.71875 0 L 4.277344 0 Z M 4.277344 -5.582031 "/></g></g></g><g fill="#ce4847" fill-opacity="1"><g transform="translate(195.926213, 169.814486)"><g><path d="M 8.777344 -4.296875 C 8.777344 -6.355469 7.953125 -7.75 5.925781 -7.75 C 4.929688 -7.75 4.125 -7.300781 3.609375 -6.648438 L 3.609375 -12.886719 L 1.03125 -12.886719 L 1.03125 0 L 3.609375 0 L 3.609375 -3.78125 C 3.609375 -4.808594 4.242188 -5.667969 5.050781 -5.667969 C 5.859375 -5.667969 6.203125 -5.1875 6.203125 -4.296875 L 6.203125 0 L 8.777344 0 Z M 8.777344 -4.296875 "/></g></g></g><g fill="#ce4847" fill-opacity="1"><g transform="translate(207.711556, 169.814486)"><g><path d="M 3.367188 -4.691406 C 3.367188 -4.691406 3.453125 -6.097656 5.066406 -6.097656 C 6.632812 -6.097656 6.75 -4.691406 6.75 -4.691406 Z M 9.226562 -3.953125 C 9.226562 -6.375 7.320312 -7.75 5.015625 -7.75 C 2.472656 -7.75 0.601562 -6.152344 0.601562 -3.78125 C 0.601562 -1.375 2.40625 0.171875 5.015625 0.171875 C 7.027344 0.171875 8.640625 -0.824219 9.089844 -2.816406 L 6.460938 -2.816406 C 6.441406 -2.269531 5.875 -1.667969 4.964844 -1.667969 C 3.953125 -1.667969 3.332031 -2.59375 3.332031 -3.46875 L 9.207031 -3.46875 C 9.207031 -3.625 9.226562 -3.796875 9.226562 -3.953125 Z M 9.226562 -3.953125 "/></g></g></g><path stroke-linecap="butt" transform="matrix(0.75, 0, 0, 0.75, 37.500002, 146.20026)" fill="none" stroke-linejoin="miter" d="M -0.00000271667 1.998612 L 89.296878 1.998612 " stroke="#ffdccb" stroke-width="4" stroke-opacity="1" stroke-miterlimit="4"/><path stroke-linecap="butt" transform="matrix(0.75, 0, 0, 0.75, 270.527478, 146.20026)" fill="none" stroke-linejoin="miter" d="M -0.000178914 1.998612 L 89.296702 1.998612 " stroke="#ffdccb" stroke-width="4" stroke-opacity="1" stroke-miterlimit="4"/><g fill="#598b8e" fill-opacity="0.4392"><g transform="translate(125.531127, 166.094819)"><g><path d="M -12.699219 -24.921875 C -12.703125 -26.628906 -12.292969 -28.035156 -11.304688 -29.03125 C -9.4375 -30.910156 -6.988281 -31.164062 -4.34375 -31.171875 L 1.316406 -19.511719 C -0.472656 -19.089844 -2.453125 -18.203125 -4.046875 -16.601562 C -6.738281 -13.890625 -8.40625 -9.449219 -5.914062 -5.492188 C -5.554688 -4.914062 -5.136719 -4.445312 -4.722656 -4.035156 C -1.546875 -0.875 3.273438 -1.800781 6.597656 -5.144531 C 9.09375 -7.660156 10.378906 -11.054688 9.789062 -14.769531 C 12.570312 -14.863281 15.460938 -15.558594 18.042969 -18.160156 C 21.777344 -21.917969 22.722656 -27.566406 19.398438 -34.167969 C 19.285156 -34.390625 19.148438 -34.582031 19.011719 -34.71875 C 18.125 -35.597656 16.722656 -35.347656 15.871094 -34.488281 C 15.183594 -33.796875 14.855469 -32.695312 15.410156 -31.484375 C 17.351562 -27.136719 16.507812 -24.460938 14.53125 -22.472656 C 12.636719 -20.566406 10.238281 -20.75 7.539062 -20.742188 L 2.046875 -31.800781 C 3.589844 -32.027344 5.324219 -32.445312 6.53125 -33.824219 C 9.277344 -36.589844 9.097656 -41.714844 5.972656 -44.816406 C 2.90625 -47.863281 -1.226562 -47.464844 -3.558594 -45.117188 C -5.621094 -43.042969 -6.960938 -40.257812 -6.371094 -36.539062 C -9.152344 -36.449219 -12.097656 -35.804688 -14.707031 -33.179688 C -17.070312 -30.800781 -18.191406 -28.292969 -17.875 -24.683594 C -17.820312 -24.023438 -17.542969 -23.472656 -17.15625 -23.089844 C -16.160156 -22.097656 -14.339844 -21.996094 -13.378906 -22.960938 C -12.941406 -23.40625 -12.667969 -24.066406 -12.699219 -24.921875 Z M 0.117188 -40.691406 C 0.832031 -41.410156 1.6875 -41.496094 2.542969 -40.644531 C 3.398438 -39.792969 3.238281 -38.636719 2.46875 -37.863281 C 1.671875 -37.0625 0.570312 -37.058594 -0.199219 -37.164062 C -0.8125 -38.761719 -0.59375 -39.972656 0.117188 -40.691406 Z M 2.976562 -8.523438 C 1.878906 -7.417969 0.472656 -7.550781 -0.441406 -8.457031 C -0.632812 -8.648438 -0.828125 -8.839844 -0.964844 -9.089844 C -1.6875 -10.410156 -1.527344 -12.171875 -0.261719 -13.445312 C 0.726562 -14.4375 2.019531 -14.800781 3.5625 -14.859375 C 4.644531 -12.027344 4.238281 -9.792969 2.976562 -8.523438 Z M 2.976562 -8.523438 "/></g></g></g><g fill="#598b8e" fill-opacity="0.4392"><g transform="translate(148.225714, 144.648946)"><g><path d="M 12.6875 -18.667969 C 13.183594 -13.859375 10.347656 -10.386719 7.390625 -8.898438 C 4.847656 -7.625 2.632812 -8.039062 1.828125 -9.640625 C 1.671875 -9.953125 1.550781 -10.285156 1.515625 -10.703125 L 1.460938 -11.503906 C 2.785156 -11.382812 4.25 -11.59375 5.640625 -12.292969 C 8.808594 -13.886719 10.597656 -17.269531 9.964844 -20.875 C 9.808594 -21.625 9.578125 -22.335938 9.28125 -22.929688 C 7.621094 -26.238281 3.734375 -27.46875 -0.203125 -25.492188 C -3.300781 -23.9375 -5.421875 -20.605469 -4.890625 -16.511719 L -3.953125 -9.523438 C -3.8125 -8.546875 -3.566406 -7.625 -3.164062 -6.824219 C -1.085938 -2.679688 4.109375 -2.0625 9.191406 -4.617188 C 14.03125 -7.046875 18.34375 -12.175781 17.300781 -19.980469 C 17.265625 -20.3125 17.179688 -20.574219 17.074219 -20.78125 C 16.53125 -21.863281 15.261719 -21.964844 14.214844 -21.441406 C 13.242188 -20.949219 12.457031 -19.902344 12.6875 -18.667969 Z M 1.757812 -21.332031 C 2.730469 -21.820312 3.761719 -21.335938 4.269531 -20.324219 C 4.40625 -20.046875 4.511719 -19.75 4.546875 -19.417969 C 4.777344 -18.09375 3.941406 -17.152344 2.898438 -16.628906 C 2.238281 -16.296875 1.503906 -16.101562 0.878906 -16.136719 L 0.558594 -18.59375 C 0.402344 -19.863281 0.957031 -20.929688 1.757812 -21.332031 Z M 1.757812 -21.332031 "/></g></g></g><g fill="#598b8e" fill-opacity="0.4392"><g transform="translate(165.939677, 136.248176)"><g><path d="M 10.835938 -14.027344 C 10.363281 -9.492188 8.480469 -6.894531 6.289062 -6.347656 C 4.925781 -6.007812 3.886719 -6.632812 3.632812 -7.652344 C 3.566406 -7.917969 3.566406 -8.238281 3.578125 -8.523438 L 4.648438 -19.992188 L 7.105469 -20.605469 C 9.035156 -21.085938 9.714844 -22.703125 9.40625 -23.949219 C 9.160156 -24.933594 8.300781 -25.640625 6.863281 -25.285156 L 5.164062 -24.859375 L 5.855469 -32.863281 C 5.867188 -33.148438 5.847656 -33.382812 5.789062 -33.609375 C 5.441406 -35.007812 4.175781 -35.898438 2.511719 -35.484375 C 1.265625 -35.171875 0.421875 -34.039062 0.300781 -32.601562 L -0.621094 -23.417969 L -2.210938 -23.019531 C -4.25 -22.511719 -4.800781 -21.007812 -4.496094 -19.800781 C -4.234375 -18.742188 -3.363281 -17.992188 -2.34375 -18.25 L -1.097656 -18.558594 L -2 -8.65625 L -2.007812 -8.695312 C -2.085938 -7.710938 -2.027344 -6.84375 -1.832031 -6.046875 C -0.867188 -2.191406 3.136719 -0.78125 7.03125 -1.753906 C 11.871094 -2.960938 15.019531 -7.5625 15.628906 -14.300781 C 15.636719 -14.582031 15.648438 -14.867188 15.589844 -15.09375 C 15.308594 -16.226562 14.03125 -16.671875 12.859375 -16.378906 C 11.914062 -16.144531 10.988281 -15.351562 10.835938 -14.027344 Z M 10.835938 -14.027344 "/></g></g></g><g fill="#598b8e" fill-opacity="0.4392"><g transform="translate(180.689752, 133.038366)"><g><path d="M 8.421875 -37.964844 L 8.21875 -38.0625 L 8.261719 -38.027344 C 7.816406 -38.179688 7.300781 -38.25 6.835938 -38.207031 C 6.292969 -38.15625 5.71875 -37.984375 5.207031 -37.625 C 4.292969 -36.914062 3.8125 -35.8125 3.914062 -34.722656 C 3.964844 -34.179688 4.167969 -33.652344 4.527344 -33.175781 L 4.488281 -33.175781 C 4.84375 -32.699219 5.390625 -32.320312 5.878906 -32.089844 C 5.453125 -31.621094 4.734375 -31.359375 4.0625 -31.453125 C 1.957031 -31.800781 1.394531 -29.011719 3.613281 -28.710938 C 4.207031 -28.648438 4.714844 -28.65625 5.179688 -28.699219 C 7.933594 -28.957031 10.058594 -30.523438 10.660156 -32.890625 L 10.660156 -32.851562 C 10.804688 -33.414062 10.824219 -34.039062 10.765625 -34.660156 C 10.632812 -36.097656 9.917969 -37.4375 8.421875 -37.964844 Z M 8.421875 -37.964844 "/></g></g></g><g fill="#598b8e" fill-opacity="0.4392"><g transform="translate(187.837916, 131.879041)"><g><path d="M 21.628906 -9.042969 C 20.484375 -6.839844 18.976562 -5.378906 17.09375 -4.5 C 17.21875 -4.996094 17.339844 -5.453125 17.386719 -5.957031 C 17.597656 -8.207031 16.597656 -10.453125 15.683594 -12.378906 C 15.03125 -13.773438 14.378906 -15.164062 14.335938 -16.378906 C 15.464844 -16.742188 16.4375 -17.90625 16.546875 -19.070312 C 16.703125 -20.738281 15.566406 -22.410156 13.628906 -22.589844 C 12.15625 -22.730469 10.609375 -22.132812 9.730469 -20.6875 C 7.941406 -17.882812 6.03125 -15.046875 4.207031 -12.285156 C 1.546875 -11.867188 -0.0117188 -9.042969 -0.246094 -6.558594 C -0.601562 -2.757812 2.921875 0.546875 9.789062 1.195312 C 16.539062 1.828125 22.832031 -0.164062 26.28125 -7.742188 C 26.375 -7.890625 26.394531 -8.085938 26.40625 -8.242188 C 26.511719 -9.367188 25.308594 -10.300781 24.066406 -10.417969 C 23.136719 -10.503906 22.164062 -10.128906 21.628906 -9.042969 Z M 9.429688 -11.246094 L 9.851562 -11.949219 C 10.882812 -10.445312 11.636719 -8.492188 11.46875 -6.671875 C 11.296875 -4.847656 10.183594 -3.425781 8.121094 -3.542969 C 6.800781 -3.664062 5.691406 -4.355469 5.359375 -5.40625 C 5.664062 -5.296875 5.972656 -5.269531 6.246094 -5.242188 C 8.496094 -5.03125 9.992188 -6.808594 10.171875 -8.710938 C 10.253906 -9.601562 10.027344 -10.523438 9.429688 -11.246094 Z M 9.429688 -11.246094 "/></g></g></g><g fill="#598b8e" fill-opacity="0.4392"><g transform="translate(208.011045, 134.150897)"><g/></g></g><g fill="#598b8e" fill-opacity="0.4392"><g transform="translate(222.939029, 139.003541)"><g><path d="M 14.359375 5.289062 L 27.085938 -4.425781 C 27.757812 -4.964844 28.21875 -5.457031 28.492188 -5.882812 C 29.449219 -7.351562 28.625 -8.304688 28.308594 -8.742188 C 28.15625 -8.933594 27.945312 -9.117188 27.71875 -9.265625 C 26.738281 -9.902344 25.40625 -10.070312 24.273438 -9.179688 C 23.925781 -11.078125 22.980469 -12.34375 21.25 -13.46875 C 18.832031 -15.039062 15.390625 -15.324219 12.339844 -12.984375 L 4.425781 -6.882812 C 3.75 -6.34375 3.152344 -5.710938 2.726562 -5.058594 C 1.050781 -2.476562 1.722656 0.421875 3.625 2.355469 C 0.207031 0.96875 -4.445312 -0.378906 -7.527344 2.21875 C -8.050781 2.667969 -8.4375 3.113281 -8.753906 3.605469 C -10.8125 6.773438 -9.230469 10.777344 -6.03125 12.855469 C -2.796875 14.957031 1.367188 15.199219 5.171875 12.28125 L 9.371094 9.109375 C 14.996094 10.671875 21.457031 11.246094 28.167969 5.847656 C 28.433594 5.652344 28.636719 5.410156 28.785156 5.183594 C 29.507812 4.070312 29.082031 2.867188 28.101562 2.230469 C 27.222656 1.65625 25.914062 1.59375 24.628906 2.574219 C 21.253906 5.121094 17.789062 5.65625 14.359375 5.289062 Z M 19.515625 -5.71875 L 12.550781 -0.441406 C 11.09375 0.375 9.386719 0.570312 8.277344 -0.152344 C 7.492188 -0.660156 7.160156 -1.433594 7.625 -2.15625 C 7.730469 -2.316406 7.96875 -2.535156 8.179688 -2.722656 L 16.511719 -9.109375 C 17.433594 -9.8125 18.484375 -9.78125 19.203125 -9.316406 C 20.214844 -8.65625 20.609375 -7.332031 19.84375 -6.15625 C 19.757812 -6.027344 19.652344 -5.863281 19.515625 -5.71875 Z M 2.414062 6.726562 L 0.1875 8.4375 C -1.054688 9.351562 -2.472656 9.3125 -3.453125 8.675781 C -4.203125 8.1875 -4.265625 7.496094 -3.882812 6.910156 C -3.757812 6.710938 -3.523438 6.492188 -3.273438 6.328125 C -2.074219 5.480469 -0.0703125 5.902344 2.414062 6.726562 Z M 2.414062 6.726562 "/></g></g></g><g fill="#598b8e" fill-opacity="0.4392"><g transform="translate(240.585438, 150.553505)"><g><path d="M 16.992188 7.011719 C 16.964844 7.035156 17.433594 6.625 17.886719 6.019531 C 18.210938 6.097656 18.625 6.09375 19.042969 6.039062 C 20.214844 5.894531 23.53125 4.535156 24.703125 3.507812 C 27.6875 0.886719 27.519531 -3.320312 24.742188 -6.484375 C 22.328125 -9.234375 18.515625 -10.503906 15.089844 -9.152344 L 7.179688 -5.996094 C 6.21875 -5.613281 5.382812 -5.089844 4.738281 -4.523438 C 1.664062 -1.824219 2.132812 2.429688 4.757812 5.417969 C 6.761719 7.699219 9.320312 9.136719 12.507812 8.515625 C 12.824219 9.171875 13.273438 9.863281 13.816406 10.476562 C 16.847656 13.929688 21.699219 14.496094 25.648438 12.789062 C 26.046875 12.597656 26.390625 12.398438 26.652344 12.164062 C 27.738281 11.214844 27.65625 9.882812 26.910156 9.035156 C 26.21875 8.246094 25.03125 7.835938 23.664062 8.464844 C 21.28125 9.414062 18.839844 9.175781 17.324219 7.445312 C 17.222656 7.328125 17.066406 7.152344 16.992188 7.011719 Z M 19.113281 0.328125 C 18.769531 0.472656 18.460938 0.589844 18.199219 0.765625 C 16.960938 -0.996094 14.382812 -1.273438 12.628906 0.265625 C 11.65625 1.171875 11.566406 2.132812 11.585938 3.097656 C 10.230469 3.617188 8.984375 3.207031 8.1875 2.296875 C 7.1875 1.15625 7.632812 0.246094 8.335938 -0.371094 C 8.890625 -0.859375 9.546875 -1.175781 9.941406 -1.316406 L 17.710938 -4.457031 C 18.984375 -4.953125 20.441406 -4.414062 21.238281 -3.507812 C 22.035156 -2.601562 21.933594 -1.476562 21.261719 -0.882812 C 20.734375 -0.421875 19.90625 -0.00390625 19.113281 0.328125 Z M 19.113281 0.328125 "/></g></g></g><g fill="#0996a5" fill-opacity="1"><g transform="translate(122.720377, 165.497368)"><g><path d="M -12.699219 -24.921875 C -12.703125 -26.628906 -12.292969 -28.035156 -11.304688 -29.03125 C -9.4375 -30.910156 -6.988281 -31.164062 -4.34375 -31.171875 L 1.316406 -19.511719 C -0.472656 -19.089844 -2.453125 -18.203125 -4.046875 -16.601562 C -6.738281 -13.890625 -8.40625 -9.449219 -5.914062 -5.492188 C -5.554688 -4.914062 -5.136719 -4.445312 -4.722656 -4.035156 C -1.546875 -0.875 3.273438 -1.800781 6.597656 -5.144531 C 9.09375 -7.660156 10.378906 -11.054688 9.789062 -14.769531 C 12.570312 -14.863281 15.460938 -15.558594 18.042969 -18.160156 C 21.777344 -21.917969 22.722656 -27.566406 19.398438 -34.167969 C 19.285156 -34.390625 19.148438 -34.582031 19.011719 -34.71875 C 18.125 -35.597656 16.722656 -35.347656 15.871094 -34.488281 C 15.183594 -33.796875 14.855469 -32.695312 15.410156 -31.484375 C 17.351562 -27.136719 16.507812 -24.460938 14.53125 -22.472656 C 12.636719 -20.566406 10.238281 -20.75 7.539062 -20.742188 L 2.046875 -31.800781 C 3.589844 -32.027344 5.324219 -32.445312 6.53125 -33.824219 C 9.277344 -36.589844 9.097656 -41.714844 5.972656 -44.816406 C 2.90625 -47.863281 -1.226562 -47.464844 -3.558594 -45.117188 C -5.621094 -43.042969 -6.960938 -40.257812 -6.371094 -36.539062 C -9.152344 -36.449219 -12.097656 -35.804688 -14.707031 -33.179688 C -17.070312 -30.800781 -18.191406 -28.292969 -17.875 -24.683594 C -17.820312 -24.023438 -17.542969 -23.472656 -17.15625 -23.089844 C -16.160156 -22.097656 -14.339844 -21.996094 -13.378906 -22.960938 C -12.941406 -23.40625 -12.667969 -24.066406 -12.699219 -24.921875 Z M 0.117188 -40.691406 C 0.832031 -41.410156 1.6875 -41.496094 2.542969 -40.644531 C 3.398438 -39.792969 3.238281 -38.636719 2.46875 -37.863281 C 1.671875 -37.0625 0.570312 -37.058594 -0.199219 -37.164062 C -0.8125 -38.761719 -0.59375 -39.972656 0.117188 -40.691406 Z M 2.976562 -8.523438 C 1.878906 -7.417969 0.472656 -7.550781 -0.441406 -8.457031 C -0.632812 -8.648438 -0.828125 -8.839844 -0.964844 -9.089844 C -1.6875 -10.410156 -1.527344 -12.171875 -0.261719 -13.445312 C 0.726562 -14.4375 2.019531 -14.800781 3.5625 -14.859375 C 4.644531 -12.027344 4.238281 -9.792969 2.976562 -8.523438 Z M 2.976562 -8.523438 "/></g></g></g><g fill="#0996a5" fill-opacity="1"><g transform="translate(145.414957, 144.051495)"><g><path d="M 12.6875 -18.667969 C 13.183594 -13.859375 10.347656 -10.386719 7.390625 -8.898438 C 4.847656 -7.625 2.632812 -8.039062 1.828125 -9.640625 C 1.671875 -9.953125 1.550781 -10.285156 1.515625 -10.703125 L 1.460938 -11.503906 C 2.785156 -11.382812 4.25 -11.59375 5.640625 -12.292969 C 8.808594 -13.886719 10.597656 -17.269531 9.964844 -20.875 C 9.808594 -21.625 9.578125 -22.335938 9.28125 -22.929688 C 7.621094 -26.238281 3.734375 -27.46875 -0.203125 -25.492188 C -3.300781 -23.9375 -5.421875 -20.605469 -4.890625 -16.511719 L -3.953125 -9.523438 C -3.8125 -8.546875 -3.566406 -7.625 -3.164062 -6.824219 C -1.085938 -2.679688 4.109375 -2.0625 9.191406 -4.617188 C 14.03125 -7.046875 18.34375 -12.175781 17.300781 -19.980469 C 17.265625 -20.3125 17.179688 -20.574219 17.074219 -20.78125 C 16.53125 -21.863281 15.261719 -21.964844 14.214844 -21.441406 C 13.242188 -20.949219 12.457031 -19.902344 12.6875 -18.667969 Z M 1.757812 -21.332031 C 2.730469 -21.820312 3.761719 -21.335938 4.269531 -20.324219 C 4.40625 -20.046875 4.511719 -19.75 4.546875 -19.417969 C 4.777344 -18.09375 3.941406 -17.152344 2.898438 -16.628906 C 2.238281 -16.296875 1.503906 -16.101562 0.878906 -16.136719 L 0.558594 -18.59375 C 0.402344 -19.863281 0.957031 -20.929688 1.757812 -21.332031 Z M 1.757812 -21.332031 "/></g></g></g><g fill="#0996a5" fill-opacity="1"><g transform="translate(163.128934, 135.650725)"><g><path d="M 10.835938 -14.027344 C 10.363281 -9.492188 8.480469 -6.894531 6.289062 -6.347656 C 4.925781 -6.007812 3.886719 -6.632812 3.632812 -7.652344 C 3.566406 -7.917969 3.566406 -8.238281 3.578125 -8.523438 L 4.648438 -19.992188 L 7.105469 -20.605469 C 9.035156 -21.085938 9.714844 -22.703125 9.40625 -23.949219 C 9.160156 -24.933594 8.300781 -25.640625 6.863281 -25.285156 L 5.164062 -24.859375 L 5.855469 -32.863281 C 5.867188 -33.148438 5.847656 -33.382812 5.789062 -33.609375 C 5.441406 -35.007812 4.175781 -35.898438 2.511719 -35.484375 C 1.265625 -35.171875 0.421875 -34.039062 0.300781 -32.601562 L -0.621094 -23.417969 L -2.210938 -23.019531 C -4.25 -22.511719 -4.800781 -21.007812 -4.496094 -19.800781 C -4.234375 -18.742188 -3.363281 -17.992188 -2.34375 -18.25 L -1.097656 -18.558594 L -2 -8.65625 L -2.007812 -8.695312 C -2.085938 -7.710938 -2.027344 -6.84375 -1.832031 -6.046875 C -0.867188 -2.191406 3.136719 -0.78125 7.03125 -1.753906 C 11.871094 -2.960938 15.019531 -7.5625 15.628906 -14.300781 C 15.636719 -14.582031 15.648438 -14.867188 15.589844 -15.09375 C 15.308594 -16.226562 14.03125 -16.671875 12.859375 -16.378906 C 11.914062 -16.144531 10.988281 -15.351562 10.835938 -14.027344 Z M 10.835938 -14.027344 "/></g></g></g><g fill="#0996a5" fill-opacity="1"><g transform="translate(177.878995, 132.440922)"><g><path d="M 8.421875 -37.964844 L 8.21875 -38.0625 L 8.261719 -38.027344 C 7.816406 -38.179688 7.300781 -38.25 6.835938 -38.207031 C 6.292969 -38.15625 5.71875 -37.984375 5.207031 -37.625 C 4.292969 -36.914062 3.8125 -35.8125 3.914062 -34.722656 C 3.964844 -34.179688 4.167969 -33.652344 4.527344 -33.175781 L 4.488281 -33.175781 C 4.84375 -32.699219 5.390625 -32.320312 5.878906 -32.089844 C 5.453125 -31.621094 4.734375 -31.359375 4.0625 -31.453125 C 1.957031 -31.800781 1.394531 -29.011719 3.613281 -28.710938 C 4.207031 -28.648438 4.714844 -28.65625 5.179688 -28.699219 C 7.933594 -28.957031 10.058594 -30.523438 10.660156 -32.890625 L 10.660156 -32.851562 C 10.804688 -33.414062 10.824219 -34.039062 10.765625 -34.660156 C 10.632812 -36.097656 9.917969 -37.4375 8.421875 -37.964844 Z M 8.421875 -37.964844 "/></g></g></g><g fill="#0996a5" fill-opacity="1"><g transform="translate(185.027161, 131.28159)"><g><path d="M 21.628906 -9.042969 C 20.484375 -6.839844 18.976562 -5.378906 17.09375 -4.5 C 17.21875 -4.996094 17.339844 -5.453125 17.386719 -5.957031 C 17.597656 -8.207031 16.597656 -10.453125 15.683594 -12.378906 C 15.03125 -13.773438 14.378906 -15.164062 14.335938 -16.378906 C 15.464844 -16.742188 16.4375 -17.90625 16.546875 -19.070312 C 16.703125 -20.738281 15.566406 -22.410156 13.628906 -22.589844 C 12.15625 -22.730469 10.609375 -22.132812 9.730469 -20.6875 C 7.941406 -17.882812 6.03125 -15.046875 4.207031 -12.285156 C 1.546875 -11.867188 -0.0117188 -9.042969 -0.246094 -6.558594 C -0.601562 -2.757812 2.921875 0.546875 9.789062 1.195312 C 16.539062 1.828125 22.832031 -0.164062 26.28125 -7.742188 C 26.375 -7.890625 26.394531 -8.085938 26.40625 -8.242188 C 26.511719 -9.367188 25.308594 -10.300781 24.066406 -10.417969 C 23.136719 -10.503906 22.164062 -10.128906 21.628906 -9.042969 Z M 9.429688 -11.246094 L 9.851562 -11.949219 C 10.882812 -10.445312 11.636719 -8.492188 11.46875 -6.671875 C 11.296875 -4.847656 10.183594 -3.425781 8.121094 -3.542969 C 6.800781 -3.664062 5.691406 -4.355469 5.359375 -5.40625 C 5.664062 -5.296875 5.972656 -5.269531 6.246094 -5.242188 C 8.496094 -5.03125 9.992188 -6.808594 10.171875 -8.710938 C 10.253906 -9.601562 10.027344 -10.523438 9.429688 -11.246094 Z M 9.429688 -11.246094 "/></g></g></g><g fill="#0996a5" fill-opacity="1"><g transform="translate(205.200304, 133.553453)"><g/></g></g><g fill="#0996a5" fill-opacity="1"><g transform="translate(220.128288, 138.406104)"><g><path d="M 14.359375 5.289062 L 27.085938 -4.425781 C 27.757812 -4.964844 28.21875 -5.457031 28.492188 -5.882812 C 29.449219 -7.351562 28.625 -8.304688 28.308594 -8.742188 C 28.15625 -8.933594 27.945312 -9.117188 27.71875 -9.265625 C 26.738281 -9.902344 25.40625 -10.070312 24.273438 -9.179688 C 23.925781 -11.078125 22.980469 -12.34375 21.25 -13.46875 C 18.832031 -15.039062 15.390625 -15.324219 12.339844 -12.984375 L 4.425781 -6.882812 C 3.75 -6.34375 3.152344 -5.710938 2.726562 -5.058594 C 1.050781 -2.476562 1.722656 0.421875 3.625 2.355469 C 0.207031 0.96875 -4.445312 -0.378906 -7.527344 2.21875 C -8.050781 2.667969 -8.4375 3.113281 -8.753906 3.605469 C -10.8125 6.773438 -9.230469 10.777344 -6.03125 12.855469 C -2.796875 14.957031 1.367188 15.199219 5.171875 12.28125 L 9.371094 9.109375 C 14.996094 10.671875 21.457031 11.246094 28.167969 5.847656 C 28.433594 5.652344 28.636719 5.410156 28.785156 5.183594 C 29.507812 4.070312 29.082031 2.867188 28.101562 2.230469 C 27.222656 1.65625 25.914062 1.59375 24.628906 2.574219 C 21.253906 5.121094 17.789062 5.65625 14.359375 5.289062 Z M 19.515625 -5.71875 L 12.550781 -0.441406 C 11.09375 0.375 9.386719 0.570312 8.277344 -0.152344 C 7.492188 -0.660156 7.160156 -1.433594 7.625 -2.15625 C 7.730469 -2.316406 7.96875 -2.535156 8.179688 -2.722656 L 16.511719 -9.109375 C 17.433594 -9.8125 18.484375 -9.78125 19.203125 -9.316406 C 20.214844 -8.65625 20.609375 -7.332031 19.84375 -6.15625 C 19.757812 -6.027344 19.652344 -5.863281 19.515625 -5.71875 Z M 2.414062 6.726562 L 0.1875 8.4375 C -1.054688 9.351562 -2.472656 9.3125 -3.453125 8.675781 C -4.203125 8.1875 -4.265625 7.496094 -3.882812 6.910156 C -3.757812 6.710938 -3.523438 6.492188 -3.273438 6.328125 C -2.074219 5.480469 -0.0703125 5.902344 2.414062 6.726562 Z M 2.414062 6.726562 "/></g></g></g><g fill="#0996a5" fill-opacity="1"><g transform="translate(237.774694, 149.956061)"><g><path d="M 16.992188 7.011719 C 16.964844 7.035156 17.433594 6.625 17.886719 6.019531 C 18.210938 6.097656 18.625 6.09375 19.042969 6.039062 C 20.214844 5.894531 23.53125 4.535156 24.703125 3.507812 C 27.6875 0.886719 27.519531 -3.320312 24.742188 -6.484375 C 22.328125 -9.234375 18.515625 -10.503906 15.089844 -9.152344 L 7.179688 -5.996094 C 6.21875 -5.613281 5.382812 -5.089844 4.738281 -4.523438 C 1.664062 -1.824219 2.132812 2.429688 4.757812 5.417969 C 6.761719 7.699219 9.320312 9.136719 12.507812 8.515625 C 12.824219 9.171875 13.273438 9.863281 13.816406 10.476562 C 16.847656 13.929688 21.699219 14.496094 25.648438 12.789062 C 26.046875 12.597656 26.390625 12.398438 26.652344 12.164062 C 27.738281 11.214844 27.65625 9.882812 26.910156 9.035156 C 26.21875 8.246094 25.03125 7.835938 23.664062 8.464844 C 21.28125 9.414062 18.839844 9.175781 17.324219 7.445312 C 17.222656 7.328125 17.066406 7.152344 16.992188 7.011719 Z M 19.113281 0.328125 C 18.769531 0.472656 18.460938 0.589844 18.199219 0.765625 C 16.960938 -0.996094 14.382812 -1.273438 12.628906 0.265625 C 11.65625 1.171875 11.566406 2.132812 11.585938 3.097656 C 10.230469 3.617188 8.984375 3.207031 8.1875 2.296875 C 7.1875 1.15625 7.632812 0.246094 8.335938 -0.371094 C 8.890625 -0.859375 9.546875 -1.175781 9.941406 -1.316406 L 17.710938 -4.457031 C 18.984375 -4.953125 20.441406 -4.414062 21.238281 -3.507812 C 22.035156 -2.601562 21.933594 -1.476562 21.261719 -0.882812 C 20.734375 -0.421875 19.90625 -0.00390625 19.113281 0.328125 Z M 19.113281 0.328125 "/></g></g></g></svg>